<svg width="18" height="21" viewBox="0 0 18 21" fill="none" xmlns="http://www.w3.org/2000/svg">
<path d="M14.1773 5.25C14.1773 8.1495 11.8594 10.5 9 10.5C6.14064 10.5 3.82267 8.1495 3.82267 5.25C3.82267 2.3505 6.14064 0 9 0C11.8594 0 14.1773 2.3505 14.1773 5.25Z" fill="#ADA699"/>
<path d="M0.377012 17.4832C1.23267 13.8165 4.82154 11.8125 8.53738 11.8125H9.46262C13.1785 11.8125 16.7673 13.8165 17.623 17.4832C17.7886 18.1927 17.9201 18.9352 17.9942 19.6897C18.065 20.411 17.4808 21 16.766 21H1.23401C0.51917 21 -0.0649578 20.411 0.00582285 19.6897C0.0798586 18.9352 0.211447 18.1927 0.377012 17.4832Z" fill="#ADA699"/>
</svg>
