<svg width="1384" height="60" viewBox="0 0 1384 60" fill="none" xmlns="http://www.w3.org/2000/svg">
<path d="M1282 31H1382" stroke="#E8CB8C" stroke-width="4" stroke-linecap="round"/>
<circle cx="1264.5" cy="30.5" r="7.5" fill="#E8CB8C"/>
<path d="M747 31H1247" stroke="#E8CB8C" stroke-width="4" stroke-linecap="round"/>
<path d="M701.73 22.1016C701.609 30.3248 698.295 37.0409 693.689 43.2234C692.656 44.6095 691.703 44.494 690.671 43.2014C679.543 29.2852 679.156 15.4295 690.131 1.0017C691.195 -0.395427 692.116 -0.274416 693.133 1.0127C698.03 7.21724 701.561 14.0103 701.725 22.0961L701.73 22.1016Z" fill="#E8CB8C"/>
<path d="M717.057 52.6513C710.953 57.8877 703.885 59.6204 696.367 59.9944C694.684 60.0769 694.149 59.2463 694.425 57.5962C697.4 39.7691 707.3 30.4733 724.987 29.7967C726.703 29.7307 727.211 30.5338 726.925 32.1784C725.559 40.0771 722.87 47.2718 717.057 52.6458V52.6513Z" fill="#E8CB8C"/>
<path d="M666.943 52.4613C673.047 57.6978 680.115 59.4304 687.633 59.8045C689.316 59.887 689.851 59.0564 689.575 57.4063C686.6 39.5792 676.7 30.2834 659.013 29.6068C657.297 29.5408 656.789 30.3439 657.075 31.9885C658.441 39.8872 661.13 47.0818 666.943 52.4558V52.4613Z" fill="#E8CB8C"/>
<path d="M102 31H2" stroke="#E8CB8C" stroke-width="4" stroke-linecap="round"/>
<circle cx="7.5" cy="7.5" r="7.5" transform="matrix(-1 0 0 1 127 23)" fill="#E8CB8C"/>
<path d="M637 31H137" stroke="#E8CB8C" stroke-width="4" stroke-linecap="round"/>
</svg>
