<svg width="343" height="35" viewBox="0 0 343 35" fill="none" xmlns="http://www.w3.org/2000/svg">
<path d="M22 17H2" stroke="#E8CB8C" stroke-width="3" stroke-linecap="round"/>
<circle cx="1.5" cy="1.5" r="1.5" transform="matrix(-1 0 0 1 28 15.5)" fill="#E8CB8C"/>
<path d="M141 17H31" stroke="#E8CB8C" stroke-width="3" stroke-linecap="round"/>
<path d="M320 17H340" stroke="#E8CB8C" stroke-width="3" stroke-linecap="round"/>
<circle cx="315.5" cy="17" r="1.5" fill="#E8CB8C"/>
<path d="M201 17H311" stroke="#E8CB8C" stroke-width="3" stroke-linecap="round"/>
<g clip-path="url(#clip0_347_2589)">
<path d="M176.719 12.8905C176.65 17.6879 174.777 21.606 172.174 25.2129C171.591 26.0215 171.052 25.9541 170.469 25.2C164.18 17.0814 163.961 8.99804 170.164 0.580965C170.765 -0.234108 171.286 -0.163511 171.86 0.587383C174.628 4.20708 176.623 8.17013 176.716 12.8873L176.719 12.8905Z" fill="#E8CB8C"/>
<path d="M185.381 30.7128C181.931 33.7677 177.937 34.7786 173.688 34.9968C172.737 35.0449 172.435 34.5603 172.59 33.5977C174.272 23.1975 179.867 17.7743 189.863 17.3796C190.832 17.3411 191.12 17.8096 190.958 18.7691C190.186 23.3772 188.666 27.5745 185.381 30.7096V30.7128Z" fill="#E8CB8C"/>
<path d="M157.059 30.602C160.509 33.6569 164.503 34.6677 168.752 34.8859C169.703 34.9341 170.005 34.4495 169.85 33.4868C168.168 23.0866 162.573 17.6635 152.577 17.2688C151.607 17.2303 151.32 17.6988 151.482 18.6583C152.254 23.2663 153.774 27.4636 157.059 30.5988V30.602Z" fill="#E8CB8C"/>
</g>
<defs>
<clipPath id="clip0_347_2589">
<rect width="40" height="35" fill="white" transform="translate(151)"/>
</clipPath>
</defs>
</svg>
