<svg width="64" height="64" viewBox="0 0 64 64" fill="none" xmlns="http://www.w3.org/2000/svg">
<rect x="2" y="2" width="60" height="60" rx="30" fill="#666D4B"/>
<path d="M36.4879 59.711C35.186 59.9014 33.8545 60 32.5001 60C31.1469 60 29.8166 59.9016 28.5157 59.7115C29.6132 58.898 30.9982 58.412 32.5021 58.4116C34.0058 58.412 35.3905 58.8978 36.4879 59.711Z" fill="white"/>
<path d="M39.8634 58.9963C38.1384 56.9658 35.477 55.6616 32.4964 55.6616C29.5167 55.6616 26.8558 56.9651 25.1308 58.9946C24.5601 58.8351 23.9968 58.6576 23.4416 58.4627C25.452 55.8016 28.7595 54.0616 32.4926 54.0616H32.5002C36.2343 54.0616 39.5425 55.8025 41.5527 58.4647C40.9975 58.6595 40.4342 58.8369 39.8634 58.9963Z" fill="white"/>
<path d="M49.5547 54.0336C45.9137 48.8138 39.625 45.3577 32.4926 45.3577C25.3637 45.3577 19.0777 48.8103 15.4358 54.0259C15.8688 54.3713 16.3124 54.7039 16.766 55.023C20.095 50.18 25.9033 46.9654 32.4964 46.9654C39.0916 46.9654 44.9015 50.1805 48.23 55.026C48.6817 54.7083 49.1235 54.3773 49.5547 54.0336Z" fill="white"/>
<path fill-rule="evenodd" clip-rule="evenodd" d="M51.7348 52.1001C47.5228 46.3713 40.4718 42.6077 32.5002 42.6077C24.5275 42.6077 17.477 46.371 13.2664 52.101C12.869 51.7095 12.4834 51.3059 12.1102 50.8909C12.3842 50.53 12.6688 50.1767 12.9636 49.8314C12.0382 48.9851 10.9476 48.3236 9.7586 47.8844C9.31927 47.2353 8.90663 46.5664 8.52228 45.8794C10.5961 46.2843 12.5249 47.2442 14.0628 48.6286C14.7173 47.9591 15.4127 47.3252 16.1451 46.7305C14.0563 44.8192 11.4606 43.5673 8.60072 43.1C8.09619 43.0178 7.59382 42.962 7.09519 42.9314C6.87362 42.3948 6.66833 41.8497 6.47994 41.2966C7.2688 41.313 8.06286 41.3855 8.85664 41.5154C12.1318 42.0497 15.0984 43.5053 17.4643 45.7302C18.2478 45.1759 19.067 44.6637 19.9181 44.1973C17.0794 41.3712 13.3354 39.4681 9.29208 38.8077C8.09016 38.6115 6.88825 38.5255 5.69955 38.547C5.57871 38.0185 5.47289 37.4843 5.38256 36.9448C6.75969 36.9035 8.15397 36.995 9.548 37.2231C14.1151 37.9693 18.3159 40.1632 21.4465 43.4252C22.3569 43.0029 23.2985 42.6311 24.2671 42.3136C20.6166 38.1749 15.5724 35.4123 9.97962 34.5C8.31962 34.2295 6.67332 34.1309 5.06126 34.1906C5.02575 33.658 5.00519 33.1213 5 32.5809C6.73016 32.5213 8.48298 32.6325 10.2355 32.9192C16.4766 33.9358 22.0402 37.0843 25.9869 41.8147C27.8128 41.3525 29.7208 41.0796 31.6854 41.0201C31.6836 40.9709 31.6825 40.9214 31.6825 40.8718C31.6825 40.4697 31.6802 40.0673 31.678 39.6647V39.6638C31.6724 38.685 31.6669 37.7054 31.6939 36.7278C31.7092 36.1274 31.5149 35.7181 31.1111 35.2814C30.3835 34.4979 29.6293 34.1119 28.5094 34.0222C22.0946 33.4998 17.7977 28.4553 17.9958 21.8825C18.0148 21.2314 18.2091 21.0092 18.8491 20.9936C25.2029 20.8572 30.513 25.1689 30.7606 32.459C30.7835 33.1607 31.0806 33.5388 31.6825 33.9599V32.7591C31.6825 32.3696 31.6844 31.9804 31.6864 31.5913C31.6916 30.5356 31.6968 29.4809 31.6634 28.4241C31.652 28.0654 31.4844 27.6405 31.2482 27.3754C29.1265 25.0129 27.8504 22.2879 27.9037 19.0444C27.9646 15.3565 29.5874 12.4248 32.292 10C34.1623 11.5633 35.4879 13.4657 36.1812 15.7697C37.503 20.1594 36.3717 23.972 33.4043 27.2896C33.0691 27.6678 32.9243 28.0225 32.9357 28.5254C32.9535 29.5883 32.951 30.6495 32.9484 31.7112C32.9472 32.2422 32.9459 32.7733 32.9472 33.3049C32.9472 33.4282 32.9558 33.5514 32.9661 33.6984C32.9711 33.7699 32.9765 33.8471 32.9814 33.9326L32.9776 33.9482C33.6328 33.5115 33.85 33.0281 33.8652 32.303C34.0061 25.6601 39.3124 20.6701 45.8072 21.017C45.9471 21.0243 46.087 21.0421 46.2361 21.0612C46.3265 21.0727 46.4203 21.0847 46.5196 21.095C46.7748 22.6154 46.5843 24.0812 46.2186 25.5197C44.9235 30.5838 40.8019 33.9209 35.6403 34.0729C34.9661 34.0924 34.5166 34.338 34.0099 34.7668C33.1719 35.4842 32.8329 36.2755 32.9167 37.4022C32.9879 38.3369 32.9714 39.2809 32.9546 40.2446C32.9501 40.4987 32.9456 40.7542 32.9427 41.0113C34.9171 41.0433 36.8365 41.2907 38.6751 41.7296C42.6138 37.0486 48.1469 33.9333 54.3524 32.9231C56.2445 32.6148 58.1367 32.5106 60 32.6044C59.9944 33.1445 59.9734 33.6808 59.9375 34.213C58.1949 34.1193 56.4098 34.2104 54.6083 34.5039C49.0645 35.4081 44.0596 38.134 40.417 42.2097C41.3934 42.5157 42.3433 42.8766 43.2623 43.2887C46.3793 40.0974 50.5293 37.9482 55.0361 37.2154C56.5705 36.9656 58.1048 36.8805 59.6159 36.9551C59.5256 37.4934 59.4199 38.0263 59.2992 38.5535C57.9753 38.501 56.6334 38.5819 55.292 38.8C51.3173 39.4492 47.6317 41.2994 44.8111 44.0467C45.6736 44.5055 46.5043 45.0109 47.2993 45.5593C49.635 43.4251 52.5346 42.0288 55.7275 41.5116C56.6622 41.3587 57.5969 41.2853 58.5228 41.2894C58.3365 41.8367 58.1337 42.3762 57.9149 42.9075C57.2768 42.9283 56.6318 42.9904 55.9834 43.0962C53.2131 43.5488 50.6907 44.7377 48.6368 46.549C49.3773 47.1361 50.0811 47.7627 50.7443 48.4254C52.3338 47.0693 54.3096 46.1519 56.4188 45.8077C56.4551 45.8018 56.4913 45.796 56.5275 45.7904C56.1665 46.4413 55.7802 47.0761 55.3698 47.6933C54.0713 48.0895 52.8734 48.745 51.857 49.6144C52.2177 50.0269 52.5637 50.451 52.8943 50.8862C52.52 51.3025 52.1333 51.7073 51.7348 52.1001ZM32.3072 26.5255C36.5088 22.3659 36.486 15.9802 32.3072 11.8479C28.0865 16.0465 28.1703 22.4205 32.3072 26.5255ZM22.666 30.2953C20.3385 28.233 19.4014 25.5197 19.2528 22.4127C24.2963 21.5511 29.9112 27.2701 29.4579 32.7981C26.9171 32.728 24.6087 32.0145 22.666 30.2953ZM35.1756 32.7552C41.8532 32.7825 45.5101 27.3052 45.2663 22.3854C40.2076 21.6837 34.4899 27.5274 35.1756 32.7552Z" fill="white"/>
<path d="M45.7849 56.5606C42.9902 52.4438 38.081 49.7077 32.5041 49.7077C26.9256 49.7077 22.0154 52.4452 19.221 56.5637C19.7059 56.8335 20.1998 57.0889 20.7021 57.3295C23.2069 53.7104 27.5585 51.3116 32.5002 51.3116C37.4415 51.3116 41.7943 53.7099 44.3003 57.3284C44.8038 57.0872 45.2989 56.8311 45.7849 56.5606Z" fill="white"/>
</svg>
