<svg width="28" height="21" viewBox="0 0 28 21" fill="none" xmlns="http://www.w3.org/2000/svg">
<path d="M0 0.000179889H28V21H0V0.000179889Z" fill="white"/>
<path d="M15.75 0H12.25V8.53104H0V12.4685H12.25V20.9995H15.75V12.4685H28V8.53104H15.75V0Z" fill="#C51918"/>
<path d="M21.5351 14.1518L28 18.1924V14.1518H21.5351ZM17.0435 14.1518L28 20.9995V19.0632L20.1418 14.1518H17.0435ZM25.0815 20.9995L17.0435 15.9754V20.9995H25.0815Z" fill="#0052B4"/>
<path d="M17.0435 14.1518L28 20.9995V19.0632L20.1418 14.1518H17.0435Z" fill="white"/>
<path d="M17.0435 14.1518L28 20.9995V19.0632L20.1418 14.1518H17.0435Z" fill="#C51918"/>
<path d="M4.94052 14.1517L0 17.2395V14.1517H4.94052ZM10.9565 15.0225V20.9994H1.39404L10.9565 15.0225Z" fill="#0052B4"/>
<path d="M7.85821 14.1518L0 19.0632V20.9995L10.9565 14.1518H7.85821Z" fill="#C51918"/>
<path d="M6.46488 6.84767L0 2.80714V6.84767H6.46488ZM10.9565 6.84767L0 0.000179889V1.93635L7.85821 6.84767H10.9565ZM2.91845 0L10.9565 5.02415V0H2.91845Z" fill="#0052B4"/>
<path d="M10.9565 6.84767L0 0.000179889V1.93635L7.85821 6.84767H10.9565Z" fill="white"/>
<path d="M10.9565 6.84767L0 0.000179889V1.93635L7.85821 6.84767H10.9565Z" fill="#C51918"/>
<path d="M23.0595 6.8478L28 3.75999V6.8478H23.0595ZM17.0435 5.97701V5.9963e-05H26.606L17.0435 5.97701Z" fill="#0052B4"/>
<path d="M20.1418 6.84767L28 1.93635L28 0.000179889L17.0435 6.84767H20.1418Z" fill="#C51918"/>
</svg>
