<svg width="95" height="75" viewBox="0 0 95 75" fill="none" xmlns="http://www.w3.org/2000/svg">
<path d="M51.8768 54.1809C50.4491 54.3885 48.9889 54.4959 47.5037 54.4959C46.0198 54.4959 44.5609 54.3887 43.1344 54.1815C44.3379 53.2949 45.8567 52.7651 47.5059 52.7646C49.1548 52.7651 50.6733 53.2947 51.8768 54.1809Z" fill="white"/>
<path d="M55.5784 53.4019C53.6868 51.1889 50.7682 49.7674 47.4996 49.7674C44.232 49.7674 41.3141 51.1881 39.4224 53.4001C38.7965 53.2263 38.1788 53.0328 37.57 52.8204C39.7746 49.92 43.4017 48.0235 47.4955 48.0235H47.5038C51.5987 48.0235 55.2265 49.921 57.431 52.8226C56.8221 53.0349 56.2044 53.2283 55.5784 53.4019Z" fill="white"/>
<path d="M66.2061 47.993C62.2133 42.3038 55.317 38.537 47.4955 38.537C39.6777 38.537 32.7845 42.3001 28.7907 47.9846C29.2656 48.3611 29.752 48.7236 30.2494 49.0714C33.9001 43.793 40.2695 40.2893 47.4996 40.2893C54.7321 40.2893 61.1033 43.7935 64.7534 49.0746C65.2487 48.7284 65.7331 48.3676 66.2061 47.993Z" fill="white"/>
<path fill-rule="evenodd" clip-rule="evenodd" d="M68.5968 45.8857C63.9778 39.6417 56.2455 35.5397 47.5038 35.5397C38.7608 35.5397 31.0291 39.6414 26.4117 45.8866C25.9759 45.4599 25.5531 45.0201 25.1438 44.5677C25.4443 44.1744 25.7564 43.7893 26.0797 43.4129C25.0648 42.4905 23.8689 41.7696 22.565 41.2909C22.0832 40.5834 21.6307 39.8544 21.2092 39.1056C23.4834 39.5469 25.5986 40.5931 27.2851 42.102C28.0028 41.3723 28.7654 40.6814 29.5685 40.0332C27.2779 37.9501 24.4314 36.5856 21.2952 36.0763C20.742 35.9867 20.1911 35.9259 19.6442 35.8926C19.4013 35.3077 19.1761 34.7135 18.9696 34.1108C19.8346 34.1286 20.7054 34.2076 21.5759 34.3492C25.1674 34.9315 28.4207 36.5181 31.0151 38.943C31.8744 38.3388 32.7727 37.7806 33.7061 37.2723C30.5931 34.1921 26.4873 32.1178 22.0534 31.3981C20.7354 31.1842 19.4173 31.0905 18.1138 31.1138C17.9813 30.5379 17.8652 29.9557 17.7662 29.3676C19.2763 29.3226 20.8053 29.4223 22.334 29.6709C27.3424 30.4843 31.9491 32.8754 35.3822 36.4308C36.3805 35.9705 37.4131 35.5652 38.4752 35.2192C34.4721 30.7083 28.9405 27.6973 22.8074 26.703C20.987 26.4081 19.1816 26.3007 17.4138 26.3658C17.3749 25.7853 17.3523 25.2004 17.3466 24.6113C19.2439 24.5464 21.1661 24.6675 23.088 24.9801C29.9321 26.0881 36.0332 29.5196 40.3612 34.6754C42.3635 34.1716 44.4559 33.8742 46.6103 33.8094C46.6083 33.7557 46.6071 33.7018 46.6071 33.6478C46.6071 33.2095 46.6046 32.7709 46.6021 32.3321V32.3311C46.5961 31.2643 46.59 30.1966 46.6196 29.1311C46.6363 28.4767 46.4233 28.0306 45.9805 27.5547C45.1826 26.7007 44.3555 26.28 43.1274 26.1823C36.0928 25.6129 31.3808 20.1147 31.598 12.9509C31.6189 12.2413 31.832 11.9991 32.5337 11.9822C39.5015 11.8334 45.3246 16.5328 45.5962 24.4784C45.6212 25.2433 45.9471 25.6554 46.6071 26.1143V24.8056C46.6071 24.3811 46.6092 23.9568 46.6113 23.5328C46.6171 22.3821 46.6228 21.2326 46.5862 20.0807C46.5737 19.6898 46.3899 19.2267 46.1309 18.9378C43.8041 16.3629 42.4047 13.3928 42.4632 9.85766C42.53 5.83811 44.3096 2.64287 47.2754 0C49.3265 1.70385 50.7802 3.77735 51.5405 6.28851C52.99 11.0729 51.7493 15.2284 48.4952 18.8443C48.1276 19.2564 47.9689 19.6431 47.9814 20.1912C48.0009 21.3497 47.9981 22.5062 47.9953 23.6634C47.9939 24.2422 47.9926 24.8211 47.9939 25.4005C47.9939 25.5348 48.0034 25.6691 48.0147 25.8293C48.0202 25.9073 48.0261 25.9914 48.0315 26.0846L48.0274 26.1016C48.7459 25.6257 48.984 25.0988 49.0007 24.3085C49.1552 17.0682 54.9742 11.6295 62.0965 12.0076C62.2499 12.0156 62.4033 12.035 62.5668 12.0558C62.666 12.0683 62.7688 12.0814 62.8777 12.0926C63.1576 13.7497 62.9487 15.3474 62.5477 16.9152C61.1274 22.4347 56.6075 26.0718 50.9473 26.2375C50.2079 26.2588 49.715 26.5264 49.1594 26.9938C48.2404 27.7757 47.8686 28.6382 47.9605 29.8662C48.0387 30.8849 48.0206 31.9137 48.0021 32.9642C47.9972 33.2411 47.9923 33.5196 47.9891 33.7997C50.1543 33.8346 52.259 34.1043 54.2753 34.5827C58.5946 29.4808 64.6622 26.0853 71.4673 24.9843C73.5422 24.6482 75.6172 24.5347 77.6605 24.637C77.6544 25.2256 77.6314 25.8101 77.592 26.3902C75.6811 26.2881 73.7235 26.3874 71.7479 26.7072C65.6685 27.6928 60.18 30.6638 56.1855 35.1059C57.2563 35.4394 58.2979 35.8329 59.3057 36.282C62.7239 32.8037 67.2749 30.4612 72.2171 29.6626C73.8996 29.3903 75.5822 29.2975 77.2394 29.3789C77.1403 29.9655 77.0244 30.5464 76.892 31.121C75.4403 31.0638 73.9687 31.1519 72.4977 31.3897C68.1389 32.0973 64.0972 34.1138 61.0041 37.1082C61.95 37.6082 62.8609 38.1591 63.7328 38.7568C66.2941 36.4306 69.4739 34.9088 72.9752 34.345C74.0002 34.1785 75.0252 34.0984 76.0406 34.1028C75.8363 34.6994 75.6139 35.2874 75.374 35.8664C74.6742 35.8892 73.9669 35.9569 73.2559 36.0721C70.2179 36.5655 67.4518 37.8613 65.1994 39.8354C66.0115 40.4753 66.7833 41.1583 67.5106 41.8806C69.2536 40.4025 71.4203 39.4027 73.7334 39.0275C73.7731 39.021 73.8128 39.0147 73.8525 39.0086C73.4566 39.7181 73.033 40.4099 72.583 41.0826C71.1591 41.5144 69.8454 42.2288 68.7308 43.1765C69.1264 43.626 69.5058 44.0883 69.8683 44.5626C69.4579 45.0164 69.0338 45.4576 68.5968 45.8857ZM47.2922 18.0115C51.8997 13.4778 51.8747 6.51795 47.2922 2.01402C42.6637 6.59018 42.7556 13.5373 47.2922 18.0115ZM36.7194 22.1202C34.1671 19.8725 33.1395 16.9152 32.9765 13.5288C38.5073 12.5898 44.6646 18.823 44.1675 24.8481C41.3813 24.7716 38.8498 23.9941 36.7194 22.1202ZM50.4377 24.8014C57.7605 24.8311 61.7707 18.8613 61.5033 13.499C55.9559 12.7342 49.6858 19.1035 50.4377 24.8014Z" fill="white"/>
<path d="M62.0721 50.7472C59.0073 46.2602 53.6238 43.2782 47.508 43.2782C41.3906 43.2782 36.006 46.2618 32.9416 50.7507C33.4734 51.0447 34.015 51.3231 34.5658 51.5853C37.3126 47.6408 42.0846 45.0262 47.5038 45.0262C52.9225 45.0262 57.6958 47.6403 60.444 51.5841C60.9962 51.3212 61.5391 51.0421 62.0721 50.7472Z" fill="white"/>
<path d="M0 75V64.4043H5.84157V65.9814H1.6983V68.9064H5.68052V70.4835H1.6983V73.4228H5.84157V75H0Z" fill="white"/>
<path d="M6.76861 75L10.4727 69.6806L6.84181 64.4043H8.8622L11.4975 68.2898L14.1767 64.4043H16.1385L12.493 69.6806L16.2117 75H14.2353L11.4975 71.0571L8.789 75H6.76861Z" fill="white"/>
<path d="M17.3999 75V64.4043H20.1816C20.8941 64.4043 21.4651 64.4473 21.8945 64.5333C22.3338 64.6098 22.7144 64.7484 23.0365 64.9491C23.466 65.2167 23.7978 65.5847 24.0321 66.0531C24.2663 66.5215 24.3834 67.0568 24.3834 67.659C24.3834 68.2612 24.2614 68.8012 24.0174 69.2792C23.7832 69.7571 23.4513 70.1251 23.0219 70.3832C22.8657 70.4692 22.6998 70.5457 22.5241 70.6126C22.3582 70.6795 22.163 70.7321 21.9385 70.7703C21.7237 70.8085 21.4748 70.8372 21.1918 70.8563C20.9087 70.8755 20.5818 70.885 20.2109 70.885H19.0982V75H17.3999ZM19.0982 69.3078H20.1523C20.533 69.3078 20.8502 69.2935 21.104 69.2648C21.3675 69.2266 21.5871 69.1692 21.7628 69.0928C22.0458 68.9972 22.2654 68.8251 22.4216 68.5766C22.5875 68.3185 22.6705 68.0174 22.6705 67.6733C22.6705 67.2718 22.5778 66.9373 22.3923 66.6696C22.2166 66.3924 21.9677 66.2108 21.6457 66.1248C21.4504 66.0675 21.2308 66.0292 20.9868 66.0101C20.7526 65.991 20.4403 65.9814 20.0498 65.9814H19.0982V69.3078Z" fill="white"/>
<path d="M25.8782 75V64.4043H31.7198V65.9814H27.5765V68.9064H31.5588V70.4835H27.5765V73.4228H31.7198V75H25.8782Z" fill="white"/>
<path d="M33.6131 75V64.4043H36.5852C38.0102 64.4043 39.0789 64.691 39.7914 65.2645C40.5039 65.8285 40.8602 66.6744 40.8602 67.8023C40.8602 68.6913 40.6113 69.413 40.1135 69.9674C39.6255 70.5122 38.8935 70.8802 37.9174 71.0714L40.8748 75H38.7812L34.9747 69.7093H36.4241C37.3611 69.7093 38.0492 69.5611 38.4884 69.2648C38.9276 68.9589 39.1472 68.481 39.1472 67.831C39.1472 67.1715 38.9325 66.6983 38.5031 66.4116C38.0736 66.1248 37.3757 65.9814 36.4095 65.9814H35.3114V75H33.6131Z" fill="white"/>
<path d="M43.678 75V65.9814H41.5112V64.4043H47.5285V65.9814H45.3763V75H43.678Z" fill="white"/>
<path d="M53.9864 75V65.9814H51.8196V64.4043H57.8369V65.9814H55.6847V75H53.9864Z" fill="white"/>
<path d="M59.0053 75V64.4043H61.9773C63.4023 64.4043 64.4711 64.691 65.1836 65.2645C65.8961 65.8285 66.2523 66.6744 66.2523 67.8023C66.2523 68.6913 66.0034 69.413 65.5057 69.9674C65.0176 70.5122 64.2856 70.8802 63.3096 71.0714L66.267 75H64.1734L60.3668 69.7093H61.8162C62.7532 69.7093 63.4413 69.5611 63.8806 69.2648C64.3198 68.9589 64.5394 68.481 64.5394 67.831C64.5394 67.1715 64.3247 66.6983 63.8952 66.4116C63.4657 66.1248 62.7679 65.9814 61.8016 65.9814H60.7036V75H59.0053Z" fill="white"/>
<path d="M66.918 75L71.4712 64.4043H72.9353L77.5177 75H75.6438L74.3554 71.989H70.1096L68.7774 75H66.918ZM70.7245 70.4119H73.6673L72.2032 66.6553L70.7245 70.4119Z" fill="white"/>
<path d="M78.707 75V64.4043H81.1959C81.6644 64.4043 82.0939 64.4234 82.4843 64.4616C82.8747 64.4903 83.2359 64.5428 83.5677 64.6193C83.9093 64.6862 84.2168 64.7723 84.4901 64.8774C84.7633 64.9826 85.0171 65.1116 85.2514 65.2645C85.9931 65.7329 86.5544 66.3494 86.935 67.1141C87.3254 67.8788 87.5206 68.7486 87.5206 69.7236C87.5206 70.8038 87.2864 71.7501 86.8179 72.5625C86.3592 73.3655 85.6954 73.9772 84.8268 74.3978C84.3876 74.6081 83.8947 74.761 83.3481 74.8566C82.8113 74.9522 82.1476 75 81.357 75H78.707ZM80.4053 73.4228H81.1959C81.9182 73.4228 82.5233 73.375 83.0114 73.2794C83.5091 73.1743 83.9337 73.007 84.2851 72.7776C84.7633 72.4717 85.1342 72.0512 85.3978 71.5159C85.6711 70.971 85.8077 70.3688 85.8077 69.7093C85.8077 68.9733 85.6467 68.3185 85.3246 67.745C85.0025 67.1715 84.5535 66.7366 83.9776 66.4402C83.636 66.2777 83.2505 66.163 82.821 66.0961C82.4013 66.0197 81.8499 65.9814 81.1666 65.9814H80.4053V73.4228Z" fill="white"/>
<path d="M89.1584 75V64.4043H95V65.9814H90.8567V68.9064H94.839V70.4835H90.8567V73.4228H95V75H89.1584Z" fill="white"/>
</svg>
